<?xml version="1.0" encoding="utf-8"?>
<!-- Generator: Adobe Illustrator 23.1.1, SVG Export Plug-In . SVG Version: 6.00 Build 0)  -->
<svg version="1.1" id="Layer_1" xmlns="http://www.w3.org/2000/svg" xmlns:xlink="http://www.w3.org/1999/xlink" x="0px" y="0px"
	 viewBox="0 0 283.46 283.46" style="enable-background:new 0 0 283.46 283.46;" xml:space="preserve">
<style type="text/css">
	.st0{fill:#CCCCCC;fill-opacity:0.9765;}
	.st1{fill:#450064;}
	.st2{fill:#017C88;}
	.st3{fill:#FB5058;fill-opacity:0.9765;}
	.st4{fill:#FFFFFF;}
	.st5{fill:#90A6A6;}
	.st6{fill:#440063;}
	.st7{fill:#00CCBE;}
	.st8{fill:#91A7A7;}
</style>
<g transform="matrix( 1, 0, 0, 1, 0,0) ">
	<g>
		<g id="Layer2_29_MEMBER_0_FILL">
			<path class="st0" d="M45.21,47.37C18.4,74.17,5,106.41,5,144.08c0,37.31,12.68,68.82,38.75,95.26c0.36,0.72,1.09,1.09,1.45,1.45
				c26.8,26.8,59.04,40.2,96.71,40.2c15.21,0,29.34-2.17,42.74-6.52c19.92-6.52,38.03-17.75,53.97-33.68
				c26.8-26.44,39.84-58.67,39.84-96.71c0-37.67-13.4-69.9-39.84-96.71c-3.62-3.26-7.24-6.52-10.87-9.78
				c-24.63-20.28-53.24-30.06-86.2-30.06c-21.01,0-40.2,3.98-57.95,12.68C69.83,26.37,56.8,35.78,45.21,47.37z"/>
		</g>
	</g>
</g>
<g transform="matrix( 1, 0, 0, 1, 0,0) ">
	<g>
		<g id="Layer2_29_MEMBER_1_MEMBER_0_MEMBER_0_FILL">
			<path class="st1" d="M49.19,156.39l2.9,17.39l94.89,41.65l6.52-60.85L49.19,156.39z"/>
		</g>
	</g>
</g>
<g transform="matrix( 1, 0, 0, 1, 0,0) ">
	<g>
		<g id="Layer2_29_MEMBER_1_MEMBER_0_MEMBER_1_MEMBER_0_MEMBER_0_FILL">
			<path class="st1" d="M79.25,263.6c3.98-7.61,5.43-15.21,3.62-23.54l0,0c-2.17-8.33-6.52-14.85-13.04-18.83
				c-7.24-4.35-14.85-5.43-22.46-2.9c-7.97,2.17-13.76,7.24-18.11,14.85c-3.98,7.61-5.43,15.21-3.62,23.54l0,0
				c1.81,8.69,6.16,14.85,13.4,19.2c6.88,4.35,14.49,5.43,22.46,2.9C69.11,276.28,74.91,271.21,79.25,263.6 M40.86,239.7
				c2.54-4.35,5.79-7.24,10.14-8.69c3.98-1.09,7.61-0.72,11.23,1.45c3.62,2.17,6.16,5.79,7.24,10.14c0.72,4.71,0,9.42-2.17,14.13
				c-2.54,4.35-5.79,6.88-10.14,8.33l0,0c-3.98,1.45-7.97,0.72-11.23-1.45c-3.62-2.54-6.16-5.79-7.24-10.5
				C37.96,248.75,38.69,244.04,40.86,239.7z"/>
		</g>
	</g>
</g>
<g transform="matrix( 1, 0, 0, 1, 0,0) ">
	<g>
		<g id="Layer2_29_MEMBER_1_MEMBER_0_MEMBER_1_MEMBER_0_MEMBER_1_FILL">
			<path class="st2" d="M45.57,241.14L51,255.99l84.39-5.43l-49.98-44.19L45.57,241.14z"/>
		</g>
	</g>
</g>
<g transform="matrix( 1, 0, 0, 1, 0,0) ">
	<g>
		<g id="Layer2_29_MEMBER_1_MEMBER_0_MEMBER_1_MEMBER_0_MEMBER_2_MEMBER_0_FILL">
			<path class="st1" d="M274.83,233.9L274.83,233.9c-2.9-8.33-8.33-13.4-15.94-15.94c-7.61-2.54-15.21-1.81-23.18,2.9l0,0
				c-7.61,3.98-13.04,10.14-16.3,18.11c-3.62,8.33-3.98,16.3-1.09,23.54c2.9,7.97,8.33,13.4,16.3,15.94
				c7.24,2.54,14.85,1.81,22.82-2.9h0.36c7.24-3.98,12.31-10.14,15.57-18.11C276.65,249.47,277.37,241.51,274.83,233.9 M254.19,231
				c3.62,1.09,6.16,3.62,7.24,7.24c1.45,4.35,1.09,9.05-0.72,13.76c-2.17,5.07-5.43,9.05-10.14,11.59l0,0
				c-4.35,2.17-8.33,2.9-12.31,1.45c-3.62-1.09-5.79-3.62-7.24-7.24c-1.45-4.35-1.09-9.05,0.72-13.76
				c2.17-5.07,5.43-9.05,10.14-11.59l0,0C246.58,230.64,250.57,229.92,254.19,231z"/>
		</g>
	</g>
</g>
<g transform="matrix( 1, 0, 0, 1, 0,0) ">
	<g>
		<g id="Layer2_29_MEMBER_1_MEMBER_0_MEMBER_1_MEMBER_0_MEMBER_2_MEMBER_1_FILL">
			<path class="st2" d="M221.95,183.92l-11.59,6.16l30.79,65.92l11.59-6.16L221.95,183.92z"/>
		</g>
	</g>
</g>
<g transform="matrix( 1, 0, 0, 1, 0,0) ">
	<g>
		<g id="Layer2_29_MEMBER_1_MEMBER_0_MEMBER_1_MEMBER_0_MEMBER_3_FILL">
			<path class="st1" d="M242.96,190.8l-39.84-35.86l-6.52,80.41v3.98h0.72L242.96,190.8z"/>
			<path class="st3" d="M205.66,114.38l-2.54,40.57l39.84,35.86l-45.64,48.53h-0.72v-3.98l-0.36,3.26L87.58,176.67h-48.9l99.6,84.03
				h61.57l71.71-73.89L205.66,114.38z"/>
			<path class="st4" d="M49.19,156.03l-13.4,18.11l2.9,2.54h48.9L49.19,156.03z"/>
		</g>
	</g>
</g>
<g transform="matrix( 1, 0, 0, 1, 0,0) ">
	<g>
		<g id="Layer2_29_MEMBER_1_MEMBER_0_MEMBER_1_MEMBER_1_FILL">
			<path class="st1" d="M206.02,110.39l-2.17,23.9h38.03l-15.21-22.46L206.02,110.39z"/>
		</g>
	</g>
</g>
<g transform="matrix( 1, 0, 0, 1, 0,0) ">
	<g>
		<g id="Layer2_29_MEMBER_1_MEMBER_0_MEMBER_2_FILL">
			<path class="st5" d="M129.23,75.99v30.06l74.61,41.29l2.54-25.35L129.23,75.99z"/>
		</g>
	</g>
</g>
<g transform="matrix( 1, 0, 0, 1, 0,0) ">
	<g>
		<g id="Layer2_29_MEMBER_1_MEMBER_0_MEMBER_3_MEMBER_0_FILL">
			<path class="st2" d="M159.66,216.52H143l-1.81,19.92l35.49,1.09c1.81-6.88-0.72-11.95-7.97-15.57L159.66,216.52z"/>
		</g>
	</g>
</g>
<g transform="matrix( 1, 0, 0, 1, 0,0) ">
	<g>
		<g id="Layer2_29_MEMBER_1_MEMBER_0_MEMBER_3_MEMBER_1_FILL">
			<path class="st6" d="M158.93,77.8l8.33-11.23l-32.24-11.23l-5.43,10.5L158.93,77.8z"/>
		</g>
	</g>
</g>
<g transform="matrix( 1, 0, 0, 1, 0,0) ">
	<g>
		<g id="Layer2_29_MEMBER_1_MEMBER_0_MEMBER_3_MEMBER_2_FILL">
			<path class="st7" d="M130.68,137.92c-3.98-1.09-7.97-0.72-11.95,1.45c-3.98,2.17-6.88,5.43-7.97,9.42
				c-1.81,4.35-1.81,7.97,0,11.59c1.81,3.98,4.71,6.52,8.69,7.61l28.98,8.69l-6.52,43.83l30.79,1.45l8.33-55.78
				c0.36-3.62,0-6.88-1.81-9.78c-1.81-2.9-3.98-5.07-7.24-6.16l-23.18-7.61c-0.36,0-0.36,0-0.36,0L130.68,137.92z"/>
		</g>
	</g>
</g>
<g transform="matrix( 1, 0, 0, 1, 0,0) ">
	<g>
		<g id="Layer2_29_MEMBER_1_MEMBER_0_MEMBER_3_MEMBER_3_FILL">
			<path class="st2" d="M99.17,155.67l-0.36,2.9l51.43-0.72l3.26-42.01L99.17,155.67 M159.3,93.37l22.46-10.14l-65.92-22.46v1.45
				l42.38,31.51L159.3,93.37z"/>
			<path class="st8" d="M153.86,115.83l4.35-21.73l-42.38-31.51l-16.66,93.08L153.86,115.83z"/>
		</g>
	</g>
</g>
<g transform="matrix( 1, 0, 0, 1, 0,0) ">
	<g>
		<g id="Layer2_29_MEMBER_1_MEMBER_0_MEMBER_3_MEMBER_4_FILL">
			<path class="st7" d="M36.51,40.13l-13.76,88.74l81.49,7.97l14.13-86.2L36.51,40.13z"/>
		</g>
	</g>
</g>
<g transform="matrix( 1, 0, 0, 1, 0,0) ">
	<g>
		<g id="Layer2_29_MEMBER_1_MEMBER_0_MEMBER_3_MEMBER_5_FILL">
			<path class="st6" d="M157.12,48.46l30.42,12.31l2.17-24.27l0,0l-33.68-12.31L157.12,48.46z"/>
			<path class="st7" d="M159.3,3.91c-9.42,0-17.39,3.26-24.63,9.78c-7.24,6.52-11.23,14.49-12.31,23.54
				c-0.36,5.43,0,10.14,1.81,14.49l54.33,21.73l8.69-12.31v-0.36l-30.42-12.31l-1.45-24.63l33.68,12.31
				c0.72-8.69-1.81-16.3-7.24-22.46C176.32,7.17,168.71,3.91,159.3,3.91z"/>
		</g>
	</g>
</g>
</svg>
