<svg width="88" height="88" viewBox="0 0 88 88" fill="none" xmlns="http://www.w3.org/2000/svg">
<path d="M82 44C82 33.55 78.2704 24.5954 70.8111 17.1361C63.4222 9.71204 54.4852 6 44 6C33.55 6 24.5954 9.71204 17.1361 17.1361C9.71204 24.5954 6 33.55 6 44C6 54.4852 9.71204 63.4222 17.1361 70.8111C24.5954 78.2704 33.55 82 44 82C54.4852 82 63.4222 78.2704 70.8111 70.8111C78.2704 63.4222 82 54.4852 82 44Z" fill="#FF9364"/>
<path d="M19 70L21.5 64L68 25.5L73 36L53 83L19 70Z" fill="#FB5058"/>
<path fill-rule="evenodd" clip-rule="evenodd" d="M4 50L32 77L69.5 39.5V12H42L4 50ZM56 31C58.7614 31 61 28.7614 61 26C61 23.2386 58.7614 21 56 21C53.2386 21 51 23.2386 51 26C51 28.7614 53.2386 31 56 31Z" fill="#FFBEA2"/>
<path fill-rule="evenodd" clip-rule="evenodd" d="M69.5002 30.8632C76.5618 29.8888 82 23.8295 82 16.5C82 8.49187 75.5081 2 67.5 2C59.4919 2 53 8.49187 53 16.5C53 21.7832 55.8255 26.4064 60.0479 28.941C60.0479 28.939 60.0479 28.9369 60.0479 28.9348C60.6464 28.1106 60.9993 27.0965 60.9993 26C60.9993 25.5085 60.9284 25.0335 60.7962 24.5848C60.7958 24.5835 60.7954 24.5821 60.7951 24.5808C58.4764 22.6548 57 19.7498 57 16.5C57 10.701 61.701 6 67.5 6C73.299 6 78 10.701 78 16.5C78 21.6152 74.3422 25.8761 69.4996 26.8098L69.5002 30.8632Z" fill="#FB5058"/>
<path d="M38 32H35V56H38V32Z" fill="#FF9364"/>
<path fill-rule="evenodd" clip-rule="evenodd" d="M33 44C33 46.7614 30.7614 49 28 49C25.2386 49 23 46.7614 23 44C23 41.2386 25.2386 39 28 39C30.7614 39 33 41.2386 33 44ZM30 44C30 45.1046 29.1046 46 28 46C26.8954 46 26 45.1046 26 44C26 42.8954 26.8954 42 28 42C29.1046 42 30 42.8954 30 44Z" fill="#FF9364"/>
<path fill-rule="evenodd" clip-rule="evenodd" d="M50 44C50 46.7614 47.7614 49 45 49C42.2386 49 40 46.7614 40 44C40 41.2386 42.2386 39 45 39C47.7614 39 50 41.2386 50 44ZM47 44C47 45.1046 46.1046 46 45 46C43.8954 46 43 45.1046 43 44C43 42.8954 43.8954 42 45 42C46.1046 42 47 42.8954 47 44Z" fill="#FF9364"/>
<path fill-rule="evenodd" clip-rule="evenodd" d="M60.7711 27.5C60.9198 27.0265 61 26.5226 61 26C61 23.2386 58.7614 21 56 21C53.2386 21 51 23.2386 51 26C51 26.5226 51.0802 27.0265 51.2289 27.5C51.866 25.4714 53.7612 24 56 24C58.2388 24 60.134 25.4714 60.7711 27.5Z" fill="#FB5058"/>
</svg>
